<svg xmlns="http://www.w3.org/2000/svg" viewBox="0 0 64 64" fill="none" role="img" aria-label="MediaHive">
  <g stroke="#F5C400" stroke-width="3.2" stroke-linejoin="round" fill="none">
    <polygon points="39.97,36.60 32.00,41.20 24.03,36.60 24.03,27.40 32.00,22.80 39.97,27.40"/>
    <polygon points="33.04,24.60 25.07,29.20 17.10,24.60 17.10,15.40 25.07,10.80 33.04,15.40"/>
    <polygon points="46.90,24.60 38.93,29.20 30.96,24.60 30.96,15.40 38.93,10.80 46.90,15.40"/>
    <polygon points="53.82,36.60 45.86,41.20 37.89,36.60 37.89,27.40 45.86,22.80 53.82,27.40"/>
    <polygon points="46.90,48.60 38.93,53.20 30.96,48.60 30.96,39.40 38.93,34.80 46.90,39.40"/>
    <polygon points="33.04,48.60 25.07,53.20 17.10,48.60 17.10,39.40 25.07,34.80 33.04,39.40"/>
    <polygon points="26.11,36.60 18.14,41.20 10.18,36.60 10.18,27.40 18.14,22.80 26.11,27.40"/>
  </g>
</svg>